<?xml version="1.0" standalone="no"?>
<!DOCTYPE svg PUBLIC "-//W3C//DTD SVG 20010904//EN"
 "http://www.w3.org/TR/2001/REC-SVG-20010904/DTD/svg10.dtd">
<svg version="1.0" xmlns="http://www.w3.org/2000/svg"
 width="512.000000pt" height="512.000000pt" viewBox="0 0 512.000000 512.000000"
 preserveAspectRatio="xMidYMid meet">

<g transform="translate(0.000000,512.000000) scale(0.100000,-0.100000)"
fill="#000000" stroke="none">

<style>
    path{
        fill: #212121;
    }

    @media (prefers-color-scheme: dark) {
        path{
        fill: white;
        }
    }
<style/>
<path d="M2370 5113 c-664 -63 -1202 -317 -1651 -780 -195 -201 -340 -410
-465 -668 -158 -326 -237 -650 -251 -1020 -15 -426 73 -832 263 -1214 133
-269 271 -459 488 -677 221 -220 412 -357 681 -489 188 -92 309 -137 500 -185
196 -49 343 -70 545 -77 411 -14 803 68 1175 246 282 136 484 279 711 505 217
218 355 408 488 677 354 712 354 1546 0 2258 -133 269 -271 459 -488 677 -226
225 -427 368 -711 505 -274 132 -558 210 -870 239 -102 9 -333 11 -415 3z
m530 -448 c784 -131 1426 -675 1679 -1422 120 -353 144 -739 70 -1106 -22
-112 -79 -299 -90 -295 -3 2 -154 68 -334 148 -344 151 -379 172 -391 235 -14
74 26 120 160 185 109 52 123 62 149 100 24 35 21 74 -8 108 -22 26 -66 44
-331 132 -271 91 -309 106 -338 136 -63 65 -67 165 -10 242 47 61 68 66 286
72 l196 5 39 31 c57 46 73 85 73 179 0 96 -18 136 -78 179 -35 25 -52 29 -130
34 -100 5 -169 -7 -213 -39 -19 -13 -56 -74 -108 -178 -96 -190 -121 -216
-242 -256 -107 -35 -135 -50 -155 -80 -15 -23 -14 -30 17 -125 29 -90 31 -105
20 -139 -14 -48 -68 -98 -115 -106 -62 -12 -104 11 -217 121 -58 56 -117 106
-132 109 -47 12 -79 -16 -203 -180 -136 -180 -160 -198 -251 -192 -65 4 -142
49 -228 132 -53 51 -66 70 -80 120 -33 111 -22 155 110 462 123 287 151 332
228 377 23 13 177 79 342 146 165 68 310 129 323 138 48 32 68 115 37 159 -32
46 -67 46 -366 -2 -153 -25 -292 -45 -308 -45 -17 0 -42 10 -57 23 -22 19 -28
34 -32 78 -4 52 -1 61 118 298 l121 244 177 -6 c97 -3 220 -13 272 -22z
m-1339 -998 c55 -30 89 -85 89 -148 0 -63 -114 -339 -161 -390 -38 -42 -103
-64 -152 -53 -91 19 -171 85 -183 150 -13 73 11 124 173 371 58 89 147 115
234 70z m1223 -1342 c26 -10 169 -98 316 -195 147 -98 279 -184 291 -191 15
-8 81 -15 169 -19 113 -5 153 -10 180 -25 19 -10 96 -77 170 -149 103 -100
145 -135 175 -143 22 -7 110 -20 195 -29 85 -10 156 -18 158 -20 2 -1 -22 -44
-53 -96 -181 -295 -450 -563 -741 -734 -306 -180 -696 -294 -1006 -294 l-78 0
0 201 c0 234 -6 264 -65 317 -36 34 -56 42 -170 71 -71 18 -151 44 -176 58
-27 14 -117 96 -212 192 -206 207 -220 230 -225 398 -5 134 16 219 73 296 39
53 369 321 424 345 79 34 143 42 336 38 150 -3 200 -7 239 -21z"/>
</g>
</svg>
